<svg width="25" height="25" viewBox="0 0 25 25" fill="none" xmlns="http://www.w3.org/2000/svg">
<g clip-path="url(#clip0_1174_676)">
<path d="M17.6361 5.12965L13.0601 0.569647C12.9107 0.419032 12.7076 0.333915 12.4955 0.333015C12.2834 0.332115 12.0796 0.415505 11.9289 0.564847L11.9241 0.569647L7.3641 5.12965H2.9001C2.68792 5.12965 2.48444 5.21393 2.33441 5.36396C2.18438 5.51399 2.1001 5.71747 2.1001 5.92965V20.3296C2.1001 20.5418 2.18438 20.7453 2.33441 20.8953C2.48444 21.0454 2.68792 21.1297 2.9001 21.1297H22.1001C22.3123 21.1297 22.5158 21.0454 22.6658 20.8953C22.8158 20.7453 22.9001 20.5418 22.9001 20.3296V5.92965C22.9001 5.71747 22.8158 5.51399 22.6658 5.36396C22.5158 5.21393 22.3123 5.12965 22.1001 5.12965H17.6361ZM12.5001 2.26565L15.3641 5.12965H9.6361L12.5001 2.26565ZM21.3001 19.5296H3.7001V6.72965H21.3001V19.5296ZM8.5001 11.5296C8.07575 11.5296 7.66879 11.3611 7.36873 11.061C7.06867 10.761 6.9001 10.354 6.9001 9.92965C6.9001 9.5053 7.06867 9.09834 7.36873 8.79828C7.66879 8.49822 8.07575 8.32965 8.5001 8.32965C8.92444 8.32965 9.33141 8.49822 9.63147 8.79828C9.93153 9.09834 10.1001 9.5053 10.1001 9.92965C10.1001 10.354 9.93153 10.761 9.63147 11.061C9.33141 11.3611 8.92444 11.5296 8.5001 11.5296ZM19.7001 17.9296H7.7001L10.1001 13.1296L12.1001 17.1297L15.7001 9.92965L19.7001 17.9296Z" fill="#F9F9F9"/>
</g>
<defs>
<clipPath id="clip0_1174_676">
<rect width="24" height="24" fill="white" transform="translate(0.5 0.330078)"/>
</clipPath>
</defs>
</svg>
