<svg width="25" height="25" viewBox="0 0 25 25" fill="none" xmlns="http://www.w3.org/2000/svg">
<path fill-rule="evenodd" clip-rule="evenodd" d="M14.2998 5.12988H5.8998C4.94503 5.12988 4.02935 5.50917 3.35422 6.1843C2.67909 6.85943 2.2998 7.7751 2.2998 8.72988V15.9299C2.2998 16.8847 2.67909 17.8003 3.35422 18.4755C4.02935 19.1506 4.94503 19.5299 5.8998 19.5299H14.2998C15.2546 19.5299 16.1703 19.1506 16.8454 18.4755C17.5205 17.8003 17.8998 16.8847 17.8998 15.9299V8.72988C17.8998 7.7751 17.5205 6.85943 16.8454 6.1843C16.1703 5.50917 15.2546 5.12988 14.2998 5.12988ZM4.6998 8.72988C4.6998 8.41162 4.82623 8.1064 5.05128 7.88136C5.27632 7.65631 5.58155 7.52988 5.8998 7.52988H14.2998C14.6181 7.52988 14.9233 7.65631 15.1483 7.88136C15.3734 8.1064 15.4998 8.41162 15.4998 8.72988V15.9299C15.4998 16.2481 15.3734 16.5534 15.1483 16.7784C14.9233 17.0035 14.6181 17.1299 14.2998 17.1299H5.8998C5.58155 17.1299 5.27632 17.0035 5.05128 16.7784C4.82623 16.5534 4.6998 16.2481 4.6998 15.9299V8.72988Z" fill="white"/>
<path fill-rule="evenodd" clip-rule="evenodd" d="M20.8205 6.54079L16.6589 9.39799C16.4998 9.50715 16.3695 9.65304 16.2788 9.82328C16.1882 9.99353 16.1399 10.1831 16.1381 10.376L16.0997 14.234C16.0978 14.4307 16.1443 14.6249 16.2351 14.7994C16.3259 14.9739 16.4583 15.1234 16.6205 15.2348L20.8205 18.1184C21.0006 18.2421 21.2112 18.3142 21.4293 18.327C21.6475 18.3399 21.865 18.2928 22.0584 18.1911C22.2519 18.0893 22.4138 17.9366 22.5268 17.7496C22.6398 17.5625 22.6996 17.3481 22.6997 17.1296V7.52959C22.6996 7.31104 22.6398 7.09667 22.5268 6.9096C22.4138 6.72254 22.2519 6.56989 22.0584 6.46812C21.865 6.36635 21.6475 6.31933 21.4293 6.33214C21.2112 6.34495 21.0006 6.41709 20.8205 6.54079ZM20.2997 14.8496L18.5057 13.6184L18.5321 11.0228L20.2997 9.80959V14.8496Z" fill="white"/>
</svg>
