<svg width="17" height="17" viewBox="0 0 17 17" fill="none" xmlns="http://www.w3.org/2000/svg">
<path d="M4.95055 0.5H11.6705C14.2305 0.5 16.3105 2.58 16.3105 5.14V11.86C16.3105 13.0906 15.8217 14.2708 14.9515 15.141C14.0814 16.0111 12.9012 16.5 11.6705 16.5H4.95055C2.39055 16.5 0.310547 14.42 0.310547 11.86V5.14C0.310547 3.9094 0.799403 2.72919 1.66957 1.85902C2.53974 0.988856 3.71994 0.5 4.95055 0.5ZM4.79055 2.1C4.02672 2.1 3.29418 2.40343 2.75408 2.94353C2.21397 3.48364 1.91055 4.21618 1.91055 4.98V12.02C1.91055 13.612 3.19855 14.9 4.79055 14.9H11.8305C12.5944 14.9 13.3269 14.5966 13.867 14.0565C14.4071 13.5164 14.7105 12.7838 14.7105 12.02V4.98C14.7105 3.388 13.4225 2.1 11.8305 2.1H4.79055ZM12.5105 3.3C12.7758 3.3 13.0301 3.40536 13.2177 3.59289C13.4052 3.78043 13.5105 4.03478 13.5105 4.3C13.5105 4.56522 13.4052 4.81957 13.2177 5.00711C13.0301 5.19464 12.7758 5.3 12.5105 5.3C12.2453 5.3 11.991 5.19464 11.8034 5.00711C11.6159 4.81957 11.5105 4.56522 11.5105 4.3C11.5105 4.03478 11.6159 3.78043 11.8034 3.59289C11.991 3.40536 12.2453 3.3 12.5105 3.3ZM8.31055 4.5C9.37141 4.5 10.3888 4.92143 11.139 5.67157C11.8891 6.42172 12.3105 7.43913 12.3105 8.5C12.3105 9.56087 11.8891 10.5783 11.139 11.3284C10.3888 12.0786 9.37141 12.5 8.31055 12.5C7.24968 12.5 6.23227 12.0786 5.48212 11.3284C4.73197 10.5783 4.31055 9.56087 4.31055 8.5C4.31055 7.43913 4.73197 6.42172 5.48212 5.67157C6.23227 4.92143 7.24968 4.5 8.31055 4.5ZM8.31055 6.1C7.67403 6.1 7.06358 6.35286 6.61349 6.80294C6.1634 7.25303 5.91055 7.86348 5.91055 8.5C5.91055 9.13652 6.1634 9.74697 6.61349 10.1971C7.06358 10.6471 7.67403 10.9 8.31055 10.9C8.94707 10.9 9.55752 10.6471 10.0076 10.1971C10.4577 9.74697 10.7105 9.13652 10.7105 8.5C10.7105 7.86348 10.4577 7.25303 10.0076 6.80294C9.55752 6.35286 8.94707 6.1 8.31055 6.1Z" fill="white"/>
</svg>
