<svg width="19" height="33" viewBox="0 0 19 33" fill="none" xmlns="http://www.w3.org/2000/svg">
<path d="M14.6913 31.877L0.464406 17.6923C0.29554 17.5234 0.175646 17.3405 0.104723 17.1435C0.0337991 16.9465 -0.00109938 16.7354 2.63855e-05 16.5103C2.63855e-05 16.2851 0.0349249 16.074 0.104723 15.877C0.17452 15.68 0.294414 15.4971 0.464406 15.3282L14.6913 1.10128C15.0853 0.707263 15.5779 0.510254 16.1689 0.510254C16.7599 0.510254 17.2665 0.721336 17.6887 1.1435C18.1108 1.56566 18.3219 2.05819 18.3219 2.62107C18.3219 3.18396 18.1108 3.67648 17.6887 4.09864L5.27707 16.5103L17.6887 28.9219C18.0827 29.3159 18.2797 29.8017 18.2797 30.3792C18.2797 30.9567 18.0686 31.456 17.6465 31.877C17.2243 32.2992 16.7318 32.5103 16.1689 32.5103C15.606 32.5103 15.1135 32.2992 14.6913 31.877Z" fill="#D3D3D3" fill-opacity="0.7"/>
</svg>
