<svg width="17" height="17" viewBox="0 0 17 17" fill="none" xmlns="http://www.w3.org/2000/svg">
<path d="M14.8291 0.5H1.79203C1.39912 0.5 1.02229 0.656084 0.744463 0.933916C0.466631 1.21175 0.310547 1.58857 0.310547 1.98148V15.0185C0.310547 15.4114 0.466631 15.7883 0.744463 16.0661C1.02229 16.3439 1.39912 16.5 1.79203 16.5H14.8291C15.222 16.5 15.5988 16.3439 15.8766 16.0661C16.1545 15.7883 16.3105 15.4114 16.3105 15.0185V1.98148C16.3105 1.58857 16.1545 1.21175 15.8766 0.933916C15.5988 0.656084 15.222 0.5 14.8291 0.5ZM14.5328 14.7222H2.08832V2.27778H14.5328V14.7222ZM7.12536 12.0556V8.2037C7.12554 8.01898 7.18326 7.83889 7.2905 7.68849C7.39774 7.53808 7.54918 7.42482 7.72377 7.36445C7.89835 7.30408 8.08741 7.29961 8.26465 7.35165C8.4419 7.40368 8.59853 7.50965 8.71277 7.65481C9.16425 7.41816 9.66916 7.302 10.1787 7.31754C10.6882 7.33308 11.1851 7.47981 11.6213 7.74354C12.0575 8.00727 12.4183 8.37907 12.6688 8.82302C12.9193 9.26696 13.0511 9.76803 13.0513 10.2778V12.0556C13.0513 12.2913 12.9576 12.5174 12.7909 12.6841C12.6242 12.8508 12.3981 12.9444 12.1624 12.9444C11.9267 12.9444 11.7006 12.8508 11.5339 12.6841C11.3672 12.5174 11.2735 12.2913 11.2735 12.0556V10.2778C11.2735 9.96345 11.1486 9.66199 10.9264 9.43973C10.7041 9.21746 10.4027 9.09259 10.0883 9.09259C9.77399 9.09259 9.47254 9.21746 9.25027 9.43973C9.02801 9.66199 8.90314 9.96345 8.90314 10.2778V12.0556C8.90314 12.2913 8.80949 12.5174 8.64279 12.6841C8.47609 12.8508 8.25 12.9444 8.01425 12.9444C7.7785 12.9444 7.55241 12.8508 7.38571 12.6841C7.21901 12.5174 7.12536 12.2913 7.12536 12.0556ZM5.94018 8.2037V12.0556C5.94018 12.2913 5.84653 12.5174 5.67983 12.6841C5.51313 12.8508 5.28704 12.9444 5.05129 12.9444C4.81554 12.9444 4.58945 12.8508 4.42275 12.6841C4.25605 12.5174 4.1624 12.2913 4.1624 12.0556V8.2037C4.1624 7.96796 4.25605 7.74186 4.42275 7.57516C4.58945 7.40847 4.81554 7.31482 5.05129 7.31482C5.28704 7.31482 5.51313 7.40847 5.67983 7.57516C5.84653 7.74186 5.94018 7.96796 5.94018 8.2037ZM3.8661 4.94444C3.8661 4.71004 3.93561 4.48089 4.06584 4.28599C4.19607 4.09109 4.38117 3.93918 4.59774 3.84948C4.8143 3.75977 5.0526 3.7363 5.28251 3.78203C5.51241 3.82776 5.72359 3.94064 5.88934 4.10639C6.05509 4.27214 6.16797 4.48332 6.2137 4.71323C6.25943 4.94313 6.23596 5.18143 6.14626 5.39799C6.05655 5.61456 5.90464 5.79966 5.70974 5.92989C5.51484 6.06012 5.2857 6.12963 5.05129 6.12963C4.73696 6.12963 4.4355 6.00476 4.21324 5.7825C3.99097 5.56023 3.8661 5.25878 3.8661 4.94444Z" fill="white"/>
</svg>
