<svg width="13" height="17" viewBox="0 0 13 17" fill="none" xmlns="http://www.w3.org/2000/svg">
<path d="M6.54122 0.5C3.2521 0.5 0.00195312 2.69258 0.00195312 6.24122C0.00195312 8.49791 1.27134 9.78012 2.04067 9.78012C2.35814 9.78012 2.54073 8.8954 2.54073 8.64562C2.54073 8.34764 1.78115 7.71269 1.78115 6.47202C1.78115 3.89478 3.74293 2.06737 6.2817 2.06737C8.46454 2.06737 10.0801 3.30804 10.0801 5.5873C10.0801 7.28956 9.39747 10.4823 7.18541 10.4823C6.38736 10.4823 5.7042 9.90526 5.7042 9.0785C5.7042 7.86655 6.55045 6.69359 6.55045 5.44317C6.55045 3.32137 3.54034 3.70604 3.54034 6.27046C3.54034 6.80898 3.60753 7.40496 3.84807 7.89579C3.40545 9.80012 2.50175 12.6369 2.50175 14.5987C2.50175 15.2044 2.58843 15.8009 2.64587 16.4066C2.7546 16.5286 2.70024 16.5158 2.86692 16.4548C4.48251 14.2427 4.42506 13.8104 5.15592 10.9156C5.55033 11.666 6.56943 12.0696 7.37722 12.0696C10.7812 12.0696 12.3107 8.75179 12.3107 5.76116C12.3107 2.57821 9.56006 0.501026 6.54071 0.501026L6.54122 0.5Z" fill="white"/>
</svg>
