<svg width="33" height="20" viewBox="0 0 33 20" fill="none" xmlns="http://www.w3.org/2000/svg">
<path d="M3.64279 20C2.85707 20 2.18422 19.72 1.62422 19.16C1.06422 18.6 0.784695 17.9276 0.785647 17.1429V2.85715C0.785647 2.07143 1.06565 1.39858 1.62565 0.838576C2.18565 0.278576 2.85803 -0.000947437 3.64279 4.94314e-06H17.9285C18.7142 4.94314e-06 19.3871 0.280005 19.9471 0.840004C20.5071 1.4 20.7866 2.07239 20.7856 2.85715V17.1429C20.7856 17.9286 20.5056 18.6014 19.9456 19.1614C19.3856 19.7214 18.7133 20.0009 17.9285 20H3.64279ZM3.64279 17.1429H17.9285V2.85715H3.64279V17.1429ZM10.0714 12.8571L8.64279 10.9643C8.49993 10.7738 8.30945 10.6843 8.07136 10.6957C7.83326 10.7071 7.64279 10.8086 7.49993 11L5.89279 13.1429C5.70231 13.381 5.68422 13.631 5.8385 13.8929C5.99279 14.1548 6.21326 14.2857 6.49993 14.2857H15.0714C15.3571 14.2857 15.5714 14.1548 15.7142 13.8929C15.8571 13.631 15.8333 13.381 15.6428 13.1429L13.3571 10.0357C13.2142 9.84524 13.0237 9.75 12.7856 9.75C12.5475 9.75 12.3571 9.84524 12.2142 10.0357L10.0714 12.8571ZM25.0713 20C24.6666 20 24.3271 19.8629 24.0528 19.5886C23.7785 19.3143 23.6418 18.9752 23.6428 18.5714V1.42858C23.6428 1.02381 23.7799 0.684291 24.0542 0.410005C24.3285 0.135719 24.6675 -0.000947437 25.0713 4.94314e-06C25.4761 4.94314e-06 25.8156 0.137148 26.0899 0.411433C26.3642 0.685719 26.5009 1.02477 26.4999 1.42858V18.5714C26.4999 18.9762 26.3628 19.3157 26.0885 19.59C25.8142 19.8643 25.4752 20.0009 25.0713 20ZM30.7856 20C30.3809 20 30.0413 19.8629 29.7671 19.5886C29.4928 19.3143 29.3561 18.9752 29.3571 18.5714V1.42858C29.3571 1.02381 29.4942 0.684291 29.7685 0.410005C30.0428 0.135719 30.3818 -0.000947437 30.7856 4.94314e-06C31.1904 4.94314e-06 31.5299 0.137148 31.8042 0.411433C32.0785 0.685719 32.2152 1.02477 32.2142 1.42858V18.5714C32.2142 18.9762 32.0771 19.3157 31.8028 19.59C31.5285 19.8643 31.1894 20.0009 30.7856 20Z" fill="url(#paint0_linear_1278_657)"/>
<defs>
<linearGradient id="paint0_linear_1278_657" x1="16.4999" y1="0" x2="16.4999" y2="20" gradientUnits="userSpaceOnUse">
<stop stop-color="#70037C"/>
<stop offset="1" stop-color="#7D002E"/>
</linearGradient>
</defs>
</svg>
