<svg width="25" height="25" viewBox="0 0 25 25" fill="none" xmlns="http://www.w3.org/2000/svg">
<path d="M9.69 6.81336C7.65 9.10336 6.25 12.3934 6.12 12.7034L2.5 11.1534L6.55 7.10336C7.02 6.63336 7.7 6.42336 8.36 6.55336L9.69 6.81336ZM11.67 17.4634C11.67 17.4634 15.41 15.9134 17.56 13.7634C22.96 8.36336 22.06 4.14336 21.77 3.19336C20.82 2.89336 16.6 2.00336 11.2 7.40336C9.05 9.55336 7.5 13.2934 7.5 13.2934L11.67 17.4634ZM18.15 15.2734C15.86 17.3134 12.57 18.7134 12.26 18.8434L13.81 22.4634L17.86 18.4134C18.33 17.9434 18.54 17.2634 18.41 16.6034L18.15 15.2734ZM9.5 18.4634C9.5 19.2934 9.16 20.0434 8.62 20.5834C7.44 21.7634 2.5 22.4634 2.5 22.4634C2.5 22.4634 3.2 17.5234 4.38 16.3434C4.7988 15.9224 5.33325 15.6353 5.9155 15.5187C6.49775 15.4021 7.10153 15.4611 7.65017 15.6882C8.19882 15.9154 8.66758 16.3005 8.99694 16.7946C9.3263 17.2887 9.5014 17.8695 9.5 18.4634ZM13.5 9.46336C13.5 8.36336 14.4 7.46336 15.5 7.46336C16.6 7.46336 17.5 8.36336 17.5 9.46336C17.5 10.5634 16.6 11.4634 15.5 11.4634C14.4 11.4634 13.5 10.5634 13.5 9.46336Z" fill="#760256"/>
</svg>
