<svg width="32" height="32" viewBox="0 0 32 32" fill="none" xmlns="http://www.w3.org/2000/svg">
<path d="M24.0002 2.6665C24.231 2.66628 24.4547 2.74589 24.6335 2.89184L24.7335 2.98517L29.0975 7.69184L29.1375 7.7425C29.2735 7.92384 29.3348 8.12917 29.3348 8.32917L29.3322 10.8892C29.3322 12.2145 28.8282 13.4225 27.9988 14.3292V28.3332C27.9988 28.5748 27.9113 28.8083 27.7525 28.9904C27.5937 29.1725 27.3742 29.291 27.1348 29.3238L26.9988 29.3332H5.00284C4.76096 29.3335 4.52717 29.2461 4.34477 29.0873C4.16237 28.9284 4.04374 28.7088 4.01084 28.4692L4.00284 28.3332L4.00017 14.3305C3.21178 13.4677 2.74428 12.3599 2.67617 11.1932L2.66684 10.8892V8.3865C2.65525 8.19654 2.69977 8.00737 2.79484 7.8425L2.88151 7.71584L2.93484 7.6545L7.26684 2.9865C7.42337 2.81756 7.63342 2.70782 7.86151 2.67584L8.00017 2.6665H24.0002ZM20.1095 13.9225L20.0935 13.9465C19.6184 14.584 19.0008 15.1017 18.2901 15.4582C17.5794 15.8147 16.7953 16.0002 16.0002 15.9998C15.2001 16.0006 14.4111 15.8132 13.6968 15.4528C12.9825 15.0924 12.3629 14.5691 11.8882 13.9252C11.4138 14.5689 10.7947 15.0921 10.0809 15.4525C9.36707 15.8129 8.57849 16.0004 7.77884 15.9998C7.15351 15.9998 6.55484 15.8878 6.00017 15.6825L6.00151 27.3332H8.00017V18.3358C8.00023 18.094 8.08793 17.8604 8.24703 17.6782C8.40614 17.4961 8.62586 17.3777 8.86551 17.3452L9.00017 17.3332H14.9948C15.2365 17.3332 15.47 17.4207 15.6521 17.5795C15.8342 17.7384 15.9526 17.9578 15.9855 18.1972L15.9948 18.3332V27.3305H25.9975V15.6812C24.9581 16.0674 23.8212 16.1045 22.7588 15.787C21.6965 15.4694 20.7664 14.8144 20.1095 13.9212V13.9225ZM13.9935 19.3345H10.0002V27.3318H13.9935V19.3345ZM23.0068 17.3345C23.2485 17.3345 23.482 17.422 23.6641 17.5809C23.8462 17.7397 23.9646 17.9591 23.9975 18.1985L24.0068 18.3345V23.0038C24.0068 23.2455 23.9193 23.479 23.7605 23.6611C23.6017 23.8432 23.3822 23.9616 23.1428 23.9945L23.0068 24.0038H18.3388C18.0972 24.0038 17.8637 23.9163 17.6816 23.7575C17.4995 23.5986 17.381 23.3792 17.3482 23.1398L17.3388 23.0038V18.3345C17.3389 18.0929 17.4264 17.8594 17.5852 17.6773C17.744 17.4951 17.9634 17.3767 18.2028 17.3438L18.3388 17.3345H23.0068ZM22.0068 19.3345H19.3375V22.0038H22.0055L22.0068 19.3345ZM10.8868 9.33584H4.66817V10.8892L4.67751 11.1158L4.71484 11.4252L4.75884 11.6332L4.82551 11.8625L4.89751 12.0598L4.95084 12.1852C4.99217 12.2758 5.03884 12.3638 5.08817 12.4492L5.22551 12.6652L5.29751 12.7638L5.46951 12.9718L5.65884 13.1638L5.78684 13.2772L5.84284 13.3225C6.26284 13.6558 6.76951 13.8852 7.32551 13.9665L7.56551 13.9918L7.77884 13.9985C8.56689 13.9986 9.32559 13.6996 9.90156 13.1617C10.4775 12.6239 10.8278 11.8874 10.8815 11.1012L10.8895 10.8878V9.33717L10.8868 9.33584ZM19.1068 9.33584H12.8882V10.8892C12.8882 12.4625 14.0588 13.7652 15.5775 13.9705L15.7855 13.9918L15.9988 13.9985C16.7869 13.9986 17.5456 13.6996 18.1216 13.1617C18.6975 12.6239 19.0478 11.8874 19.1015 11.1012L19.1095 10.8878V9.33717L19.1068 9.33584ZM27.3295 9.33584H21.1095L21.1108 10.8892C21.1108 12.4625 22.2815 13.7652 23.7988 13.9705L24.0082 13.9918L24.2215 13.9985C24.9735 13.9985 25.6628 13.7318 26.2015 13.2865L26.3215 13.1825L26.4762 13.0318L26.6708 12.8052C26.7428 12.7132 26.8095 12.6185 26.8708 12.5172L27.0095 12.2692L27.0935 12.0852L27.1708 11.8785L27.2108 11.7505L27.2615 11.5478L27.2988 11.3385L27.3228 11.1158L27.3308 10.8892L27.3295 9.33584ZM12.0828 4.66517H8.43617L5.96017 7.33584H11.2628L12.0828 4.66517ZM17.8255 4.66517H14.1748L13.3535 7.33584H18.6468L17.8255 4.66517ZM23.5628 4.66517H19.9175L20.7388 7.33584H26.0402L23.5628 4.66517Z" fill="url(#paint0_linear_1161_753)"/>
<defs>
<linearGradient id="paint0_linear_1161_753" x1="15.9999" y1="2.6665" x2="15.9999" y2="29.3332" gradientUnits="userSpaceOnUse">
<stop stop-color="#70037C"/>
<stop offset="1" stop-color="#7D002E"/>
</linearGradient>
</defs>
</svg>
