<svg width="19" height="33" viewBox="0 0 19 33" fill="none" xmlns="http://www.w3.org/2000/svg">
<path d="M3.95224 31.877L18.1791 17.6923C18.348 17.5234 18.4679 17.3405 18.5388 17.1435C18.6098 16.9465 18.6447 16.7354 18.6435 16.5103C18.6435 16.2851 18.6086 16.074 18.5388 15.877C18.469 15.68 18.3491 15.4971 18.1791 15.3282L3.95224 1.10128C3.55822 0.707263 3.06569 0.510254 2.47466 0.510254C1.88363 0.510254 1.37704 0.721336 0.954876 1.1435C0.532713 1.56566 0.32163 2.05819 0.32163 2.62107C0.32163 3.18396 0.532713 3.67648 0.954876 4.09864L13.3665 16.5103L0.954876 28.9219C0.560856 29.3159 0.363846 29.8017 0.363846 30.3792C0.363846 30.9567 0.574928 31.456 0.997091 31.877C1.41926 32.2992 1.91178 32.5103 2.47466 32.5103C3.03755 32.5103 3.53007 32.2992 3.95224 31.877Z" fill="#D3D3D3" fill-opacity="0.7"/>
</svg>
