<svg width="33" height="33" viewBox="0 0 33 33" fill="none" xmlns="http://www.w3.org/2000/svg">
<path d="M24.5002 3.1665C24.731 3.16628 24.9547 3.24589 25.1335 3.39184L25.2335 3.48517L29.5975 8.19184L29.6375 8.2425C29.7735 8.42384 29.8348 8.62917 29.8348 8.82917L29.8322 11.3892C29.8322 12.7145 29.3282 13.9225 28.4988 14.8292V28.8332C28.4988 29.0748 28.4113 29.3083 28.2525 29.4904C28.0937 29.6725 27.8742 29.791 27.6348 29.8238L27.4988 29.8332H5.50284C5.26096 29.8335 5.02717 29.7461 4.84477 29.5873C4.66237 29.4284 4.54374 29.2088 4.51084 28.9692L4.50284 28.8332L4.50017 14.8305C3.71178 13.9677 3.24428 12.8599 3.17617 11.6932L3.16684 11.3892V8.8865C3.15525 8.69654 3.19977 8.50737 3.29484 8.3425L3.38151 8.21584L3.43484 8.1545L7.76684 3.4865C7.92337 3.31756 8.13342 3.20782 8.36151 3.17584L8.50017 3.1665H24.5002ZM20.6095 14.4225L20.5935 14.4465C20.1184 15.084 19.5008 15.6017 18.7901 15.9582C18.0794 16.3147 17.2953 16.5002 16.5002 16.4998C15.7001 16.5006 14.9111 16.3132 14.1968 15.9528C13.4825 15.5924 12.8629 15.0691 12.3882 14.4252C11.9138 15.0689 11.2947 15.5921 10.5809 15.9525C9.86707 16.3129 9.07849 16.5004 8.27884 16.4998C7.65351 16.4998 7.05484 16.3878 6.50017 16.1825L6.50151 27.8332H8.50017V18.8358C8.50023 18.594 8.58793 18.3604 8.74703 18.1782C8.90614 17.9961 9.12586 17.8777 9.36551 17.8452L9.50017 17.8332H15.4948C15.7365 17.8332 15.97 17.9207 16.1521 18.0795C16.3342 18.2384 16.4526 18.4578 16.4855 18.6972L16.4948 18.8332V27.8305H26.4975V16.1812C25.4581 16.5674 24.3212 16.6045 23.2588 16.287C22.1965 15.9694 21.2664 15.3144 20.6095 14.4212V14.4225ZM14.4935 19.8345H10.5002V27.8318H14.4935V19.8345ZM23.5068 17.8345C23.7485 17.8345 23.982 17.922 24.1641 18.0809C24.3462 18.2397 24.4646 18.4591 24.4975 18.6985L24.5068 18.8345V23.5038C24.5068 23.7455 24.4193 23.979 24.2605 24.1611C24.1017 24.3432 23.8822 24.4616 23.6428 24.4945L23.5068 24.5038H18.8388C18.5972 24.5038 18.3637 24.4163 18.1816 24.2575C17.9995 24.0986 17.881 23.8792 17.8482 23.6398L17.8388 23.5038V18.8345C17.8389 18.5929 17.9264 18.3594 18.0852 18.1773C18.244 17.9951 18.4634 17.8767 18.7028 17.8438L18.8388 17.8345H23.5068ZM22.5068 19.8345H19.8375V22.5038H22.5055L22.5068 19.8345ZM11.3868 9.83584H5.16817V11.3892L5.17751 11.6158L5.21484 11.9252L5.25884 12.1332L5.32551 12.3625L5.39751 12.5598L5.45084 12.6852C5.49217 12.7758 5.53884 12.8638 5.58817 12.9492L5.72551 13.1652L5.79751 13.2638L5.96951 13.4718L6.15884 13.6638L6.28684 13.7772L6.34284 13.8225C6.76284 14.1558 7.26951 14.3852 7.82551 14.4665L8.06551 14.4918L8.27884 14.4985C9.06689 14.4986 9.82559 14.1996 10.4016 13.6617C10.9775 13.1239 11.3278 12.3874 11.3815 11.6012L11.3895 11.3878V9.83717L11.3868 9.83584ZM19.6068 9.83584H13.3882V11.3892C13.3882 12.9625 14.5588 14.2652 16.0775 14.4705L16.2855 14.4918L16.4988 14.4985C17.2869 14.4986 18.0456 14.1996 18.6216 13.6617C19.1975 13.1239 19.5478 12.3874 19.6015 11.6012L19.6095 11.3878V9.83717L19.6068 9.83584ZM27.8295 9.83584H21.6095L21.6108 11.3892C21.6108 12.9625 22.7815 14.2652 24.2988 14.4705L24.5082 14.4918L24.7215 14.4985C25.4735 14.4985 26.1628 14.2318 26.7015 13.7865L26.8215 13.6825L26.9762 13.5318L27.1708 13.3052C27.2428 13.2132 27.3095 13.1185 27.3708 13.0172L27.5095 12.7692L27.5935 12.5852L27.6708 12.3785L27.7108 12.2505L27.7615 12.0478L27.7988 11.8385L27.8228 11.6158L27.8308 11.3892L27.8295 9.83584ZM12.5828 5.16517H8.93617L6.46017 7.83584H11.7628L12.5828 5.16517ZM18.3255 5.16517H14.6748L13.8535 7.83584H19.1468L18.3255 5.16517ZM24.0628 5.16517H20.4175L21.2388 7.83584H26.5402L24.0628 5.16517Z" fill="url(#paint0_linear_1183_1033)"/>
<defs>
<linearGradient id="paint0_linear_1183_1033" x1="16.4999" y1="3.1665" x2="16.4999" y2="29.8332" gradientUnits="userSpaceOnUse">
<stop stop-color="#70037C"/>
<stop offset="1" stop-color="#7D002E"/>
</linearGradient>
</defs>
</svg>
