<svg width="20" height="17" viewBox="0 0 20 17" fill="none" xmlns="http://www.w3.org/2000/svg">
<path d="M20 2.38235C19.2753 2.71176 18.4941 2.92824 17.6847 3.03176C18.5129 2.53294 19.1529 1.74235 19.4541 0.791765C18.6729 1.26235 17.807 1.59176 16.8941 1.78C16.1505 0.970588 15.1058 0.5 13.92 0.5C11.7082 0.5 9.90114 2.30706 9.90114 4.53765C9.90114 4.85765 9.93878 5.16824 10.0047 5.46C6.65408 5.29059 3.67055 3.68118 1.68466 1.24353C1.33643 1.83647 1.13878 2.53294 1.13878 3.26706C1.13878 4.66941 1.84466 5.91176 2.93643 6.61765C2.26819 6.61765 1.64702 6.42941 1.10114 6.14706V6.17529C1.10114 8.13294 2.49408 9.77059 4.33878 10.1376C3.74653 10.2997 3.12475 10.3223 2.52231 10.2035C2.77794 11.0059 3.27858 11.7079 3.95386 12.211C4.62913 12.7141 5.44509 12.9929 6.28702 13.0082C4.85985 14.1381 3.09078 14.7488 1.27055 14.74C0.950547 14.74 0.630547 14.7212 0.310547 14.6835C2.09878 15.8318 4.22584 16.5 6.50349 16.5C13.92 16.5 17.9953 10.3447 17.9953 5.00824C17.9953 4.82941 17.9953 4.66 17.9858 4.48118C18.7764 3.91647 19.4541 3.20118 20 2.38235Z" fill="white"/>
</svg>
