<svg width="20" height="22" viewBox="0 0 20 22" fill="none" xmlns="http://www.w3.org/2000/svg">
<path d="M7.37069 4.95881C5.27942 7.30636 3.84424 10.679 3.71097 10.9968L0 9.40788L4.15178 5.2561C4.63359 4.77429 5.33068 4.55901 6.00726 4.69228L7.37069 4.95881ZM9.40044 15.8764C9.40044 15.8764 13.2344 14.2875 15.4385 12.0835C20.9742 6.54776 20.0515 2.22171 19.7543 1.24784C18.7804 0.9403 14.4543 0.0279341 8.91863 5.56364C6.7146 7.76767 5.12565 11.6017 5.12565 11.6017L9.40044 15.8764ZM16.0433 13.6314C13.6957 15.7227 10.3231 17.1579 10.0053 17.2911L11.5942 21.0021L15.746 16.8503C16.2278 16.3685 16.4431 15.6714 16.3098 14.9948L16.0433 13.6314ZM7.17591 16.9016C7.17591 17.7524 6.82737 18.5213 6.2738 19.0749C5.06414 20.2845 0 21.0021 0 21.0021C0 21.0021 0.717591 15.938 1.92725 14.7283C2.35657 14.2967 2.90445 14.0025 3.50133 13.8829C4.09821 13.7633 4.71716 13.8238 5.2796 14.0567C5.84203 14.2896 6.32257 14.6844 6.66021 15.1909C6.99784 15.6974 7.17734 16.2928 7.17591 16.9016ZM11.2764 7.67541C11.2764 6.54776 12.1991 5.62515 13.3267 5.62515C14.4543 5.62515 15.377 6.54776 15.377 7.67541C15.377 8.80305 14.4543 9.72567 13.3267 9.72567C12.1991 9.72567 11.2764 8.80305 11.2764 7.67541Z" fill="white"/>
</svg>
