<svg width="22" height="17" viewBox="0 0 22 17" fill="none" xmlns="http://www.w3.org/2000/svg">
<path d="M14.1327 7.89455L9.76909 4.98546C9.65954 4.91236 9.53219 4.87039 9.40065 4.86402C9.2691 4.85765 9.1383 4.88711 9.02219 4.94927C8.90609 5.01143 8.80904 5.10395 8.74141 5.21696C8.67377 5.32996 8.6381 5.45921 8.63818 5.59091V11.4091C8.6381 11.5408 8.67377 11.67 8.74141 11.783C8.80904 11.8961 8.90609 11.9886 9.02219 12.0507C9.1383 12.1129 9.2691 12.1424 9.40065 12.136C9.53219 12.1296 9.65954 12.0876 9.76909 12.0145L14.1327 9.10546C14.2325 9.03907 14.3143 8.94906 14.3709 8.84343C14.4275 8.7378 14.4571 8.61983 14.4571 8.5C14.4571 8.38017 14.4275 8.2622 14.3709 8.15657C14.3143 8.05095 14.2325 7.96094 14.1327 7.89455ZM10.0927 10.05V6.95455L12.4182 8.5L10.0927 10.05ZM20.4864 3.18364C20.4007 2.8485 20.2366 2.53853 20.0075 2.2793C19.7785 2.02008 19.4911 1.81902 19.1691 1.69273C16.0527 0.489094 11.0927 0.500003 10.82 0.500003C10.5473 0.500003 5.58727 0.489094 2.47091 1.69273C2.14888 1.81902 1.86149 2.02008 1.63245 2.2793C1.40342 2.53853 1.2393 2.8485 1.15364 3.18364C0.918184 4.09091 0.638184 5.74909 0.638184 8.5C0.638184 11.2509 0.918184 12.9091 1.15364 13.8164C1.23917 14.1517 1.40323 14.4618 1.63227 14.7212C1.86132 14.9806 2.14877 15.1818 2.47091 15.3082C5.45636 16.46 10.1291 16.5 10.76 16.5H10.88C11.5109 16.5 16.1864 16.46 19.1691 15.3082C19.4912 15.1818 19.7787 14.9806 20.0077 14.7212C20.2368 14.4618 20.4008 14.1517 20.4864 13.8164C20.7218 12.9073 21.0018 11.2509 21.0018 8.5C21.0018 5.74909 20.7218 4.09091 20.4864 3.18364ZM19.0782 13.4564C19.0505 13.5679 18.9967 13.6713 18.9214 13.758C18.846 13.8448 18.7511 13.9124 18.6445 13.9555C15.7673 15.0664 10.8736 15.0464 10.8264 15.0464H10.82C10.7709 15.0464 5.88091 15.0645 3.00182 13.9555C2.89525 13.9124 2.80038 13.8448 2.72501 13.758C2.64963 13.6713 2.59589 13.5679 2.56818 13.4564C2.34727 12.6264 2.09273 11.0973 2.09273 8.5C2.09273 5.90273 2.34727 4.37364 2.56182 3.54818C2.58901 3.43599 2.64252 3.33187 2.71793 3.24445C2.79333 3.15703 2.88846 3.08882 2.99546 3.04546C5.77 1.97364 10.4191 1.95455 10.8 1.95455H10.8245C10.8736 1.95455 15.7682 1.93819 18.6427 3.04546C18.7493 3.08847 18.8442 3.15612 18.9195 3.24288C18.9949 3.32963 19.0487 3.43301 19.0764 3.54455C19.2927 4.37364 19.5473 5.90273 19.5473 8.5C19.5473 11.0973 19.2927 12.6264 19.0782 13.4518V13.4564Z" fill="white"/>
</svg>
